<svg width="80" height="80" viewBox="0 0 80 80" fill="none" xmlns="http://www.w3.org/2000/svg">
<path d="M73.0855 31.4384H7.28526C4.16782 31.4384 2.83177 28.0002 5.28119 26.3656L38.1813 4.55257C38.7888 4.19078 39.4807 4 40.1854 4C40.8901 4 41.582 4.19078 42.1895 4.55257L75.0896 26.3656C77.539 28.0002 76.203 31.4384 73.0855 31.4384Z" stroke="#5D55FF" strokeWidth="4" strokeLinecap="round" strokeLinejoin="round"/>
<path d="M73.5858 62.4389H6.78343C5.24618 62.4389 4 63.7007 4 65.2571V73.7118C4 75.2683 5.24618 76.53 6.78343 76.53H73.5858C75.123 76.53 76.3692 75.2683 76.3692 73.7118V65.2571C76.3692 63.7007 75.123 62.4389 73.5858 62.4389Z" stroke="#5D55FF" strokeWidth="4" strokeLinecap="round" strokeLinejoin="round"/>
<path d="M12.3503 31.4384V62.4389M26.2674 31.4384V62.4389M40.1846 31.4384V62.4389M54.1017 31.4384V62.4389M68.0189 31.4384V62.4389" stroke="#5D55FF" strokeWidth="4" strokeLinecap="round" strokeLinejoin="round"/>
</svg>
