<svg width="80" height="80" viewBox="0 0 80 80" fill="none" xmlns="http://www.w3.org/2000/svg">
<path d="M14.7683 17.7207V44.1114C14.7683 58.4783 26.156 70.1223 40.2015 70.1223C54.247 70.1223 65.6347 58.4783 65.6347 44.1114V17.735L40.0487 9.1333L14.7683 17.7207ZM40.0416 4L70.403 14.2027V44.1114C70.403 61.1692 56.8798 75 40.2015 75C23.5232 75 10 61.1692 10 44.1114V14.2027L40.0416 4ZM55.7428 27.0217C55.5109 26.8089 55.2384 26.6449 54.9417 26.5395C54.645 26.4341 54.33 26.3896 54.0157 26.4085C53.7013 26.4273 53.394 26.5093 53.112 26.6494C52.83 26.7896 52.5792 26.985 52.3745 27.2241L37.0392 44.864L27.1331 33.9123C26.9237 33.6779 26.6692 33.4879 26.3848 33.3538C26.1004 33.2196 25.7918 33.144 25.4776 33.1314C25.1633 33.1188 24.8497 33.1695 24.5555 33.2805C24.2612 33.3915 23.9923 33.5605 23.7648 33.7774C23.2989 34.2223 23.0247 34.8309 23.0001 35.4743C22.9756 36.1177 23.2027 36.7454 23.6333 37.2244L35.3231 50.1464C35.5457 50.3965 35.8194 50.5961 36.1257 50.7316C36.432 50.8671 36.7638 50.9355 37.0988 50.9321C37.4338 50.9288 37.7642 50.8537 38.0677 50.7121C38.3712 50.5704 38.6408 50.3655 38.8584 50.111L55.9382 30.4652C56.3598 29.9784 56.5751 29.3467 56.5386 28.704C56.5021 28.0612 56.2167 27.4579 55.7428 27.0217Z" fill="#1D1C31"/>
</svg>
