<svg width="24" height="24" viewBox="0 0 24 24" fill="none" xmlns="http://www.w3.org/2000/svg">
<path d="M19.1982 10.457H19.1992C19.8456 10.457 20.4544 10.5706 21.0254 10.7969C21.5979 11.0238 22.0959 11.3328 22.5195 11.7246C22.9432 12.1164 23.2812 12.5804 23.5342 13.1162C23.786 13.6495 23.9075 14.2084 23.8994 14.7939V14.7959C23.8994 15.3983 23.7776 15.9579 23.5342 16.4756C23.2896 16.9957 22.9555 17.4556 22.5312 17.8555C22.1079 18.2545 21.6059 18.5681 21.0254 18.7949C20.4457 19.0213 19.8369 19.1348 19.1992 19.1348C18.7089 19.1347 18.2311 19.0666 17.7656 18.9307C17.3003 18.7948 16.8717 18.5948 16.4805 18.3311L16.415 18.2861L16.3564 18.3398L10.8945 23.3799C10.7548 23.5091 10.591 23.5732 10.3994 23.5732C10.208 23.5731 10.0449 23.509 9.90527 23.3799C9.76578 23.2509 9.70027 23.1036 9.7002 22.9336C9.7002 22.8059 9.737 22.6909 9.81445 22.5869L9.90527 22.4863L15.3555 17.4355L15.4229 17.3721L15.3662 17.2998C15.0816 16.9388 14.866 16.5444 14.7197 16.1162C14.5733 15.6874 14.5 15.2472 14.5 14.7959C14.5 14.2013 14.6215 13.6412 14.8652 13.1152C15.1098 12.5876 15.4436 12.1281 15.8672 11.7363C16.2911 11.3443 16.7893 11.0306 17.3623 10.7959C17.9325 10.5624 18.5443 10.4495 19.1982 10.457ZM19.1992 11.7363C18.7459 11.7364 18.3206 11.8155 17.9248 11.9746C17.5309 12.133 17.179 12.3512 16.8701 12.6289C16.5602 12.9075 16.3225 13.231 16.1582 13.5986C15.994 13.9662 15.908 14.3654 15.8994 14.7939V14.7959C15.8994 15.2182 15.9861 15.6142 16.1592 15.9824C16.3312 16.3483 16.5679 16.6743 16.8682 16.96C17.1696 17.2467 17.5186 17.4661 17.9141 17.6172C18.3092 17.7681 18.7378 17.8466 19.1982 17.8545H19.1992C19.6528 17.8545 20.0786 17.7754 20.4746 17.6162C20.8684 17.4578 21.2204 17.2396 21.5293 16.9619C21.8391 16.6833 22.077 16.3598 22.2412 15.9922C22.4053 15.6247 22.4914 15.2262 22.5 14.7979V14.7959C22.5 14.3734 22.4134 13.9768 22.2402 13.6084C22.0682 13.2425 21.8316 12.9165 21.5312 12.6309C21.2298 12.3442 20.8807 12.1256 20.4854 11.9746C20.0902 11.8237 19.6617 11.7442 19.2012 11.7363H19.1992ZM15.7734 9.29297C15.5398 9.41588 15.3131 9.54441 15.0957 9.68262C14.887 9.81533 14.6887 9.96256 14.5 10.123V10.1006L14.4463 10.0723L11.2461 8.38477L11.2002 8.35938L11.1533 8.38477L7.95312 10.0723L7.89941 10.1006V13.5732L7.95312 13.6016L11.1533 15.2891L11.2002 15.3135L11.2461 15.2891L12.3027 14.7305C12.301 14.7517 12.2998 14.7737 12.2998 14.7959C12.2998 15.0318 12.3166 15.2681 12.3506 15.5039C12.3806 15.7122 12.4259 15.917 12.4824 16.1191L11.2002 16.7969L6.5 14.3076V9.36426L11.2002 6.875L15.7734 9.29297ZM20.8994 6.71387L20.8467 6.68555L11.2461 1.61035L11.2002 1.58594L11.1533 1.61035L1.55371 6.68555L1.5 6.71387V16.96L1.55371 16.9883L8.66797 20.7373C8.49895 20.9001 8.34487 21.0498 8.20508 21.1855C8.04884 21.3373 7.91353 21.5292 7.79492 21.7578L0.0996094 17.6934V5.97852L5.64648 3.04785L11.1992 0.113281L22.2998 5.97852V9.12402C21.8515 8.90627 21.3854 8.73935 20.8994 8.62598V6.71387Z" fill="white" stroke="#5D55FF" strokeWidth="0.2"/>
</svg>
