<svg width="24" height="24" viewBox="0 0 24 24" fill="none" xmlns="http://www.w3.org/2000/svg">
<path d="M20.8496 4.6084V13.5C20.8496 18.3883 16.8883 22.3496 12 22.3496C7.11175 22.3496 3.15039 18.3883 3.15039 13.5V4.6084L12 1.6582L20.8496 4.6084ZM19.4629 5.65918L19.3623 5.62402L12.0498 3.0459L12 3.02832L11.9502 3.0459L4.6377 5.62402L4.53711 5.65918V13.5C4.53711 17.6211 7.87888 20.9629 12 20.9629C16.1211 20.9629 19.4629 17.6211 19.4629 13.5V5.65918Z" fill="white" stroke="#5D55FF" strokeWidth="0.3"/>
<path d="M16.4943 8.89551C16.5791 8.89553 16.6631 8.9119 16.7414 8.94434C16.7806 8.96059 16.8186 8.98043 16.8537 9.00391L16.9514 9.08496L17.0178 9.15039C17.0779 9.21043 17.1258 9.28185 17.1584 9.36035C17.1909 9.43886 17.2072 9.52341 17.2072 9.6084C17.2072 9.69314 17.1908 9.77717 17.1584 9.85547C17.1259 9.93385 17.0778 10.0054 17.0178 10.0654L11.7795 15.3037C11.7195 15.3638 11.6479 15.4118 11.5695 15.4443C11.491 15.4769 11.4065 15.4941 11.3215 15.4941C11.2365 15.4941 11.1519 15.4769 11.0734 15.4443C10.9951 15.4118 10.9244 15.3637 10.8644 15.3037H10.8635L7.78143 12.2217C7.71697 12.1575 7.66597 12.0811 7.63104 11.9971C7.59609 11.913 7.57831 11.8225 7.57831 11.7314C7.57833 11.6404 7.59611 11.5499 7.63104 11.4658C7.66599 11.3819 7.71698 11.3054 7.78143 11.2412H7.78241C7.84667 11.1767 7.92292 11.1248 8.00702 11.0898C8.09106 11.055 8.18165 11.0371 8.27264 11.0371C8.36344 11.0372 8.45342 11.0551 8.53729 11.0898C8.57929 11.1073 8.61981 11.1291 8.65741 11.1543L8.76288 11.2412L11.3205 13.7988L11.426 13.6924L16.0363 9.08496C16.0963 9.02485 16.1678 8.9769 16.2463 8.94434C16.3248 8.91178 16.4093 8.89551 16.4943 8.89551Z" fill="white" stroke="white" strokeWidth="0.3"/>
</svg>
