<svg width="24" height="24" viewBox="0 0 24 24" fill="none" xmlns="http://www.w3.org/2000/svg">
<path d="M21.2255 14.957V17.9035C21.2255 18.4268 21.0176 18.9287 20.6476 19.2987C20.2776 19.6687 19.7758 19.8765 19.2525 19.8765H4.223C3.69981 19.8765 3.19805 19.6687 2.82806 19.2988C2.45806 18.9289 2.25013 18.4272 2.25 17.904V6.09655C2.24993 5.83741 2.30092 5.58079 2.40004 5.34136C2.49917 5.10193 2.64449 4.88436 2.8277 4.7011C3.01092 4.51784 3.22844 4.37246 3.46785 4.27328C3.70726 4.1741 3.96386 4.12305 4.223 4.12305H19.2525C19.5116 4.12305 19.7682 4.1741 20.0077 4.27328C20.2471 4.37246 20.4646 4.51784 20.6478 4.7011C20.831 4.88436 20.9763 5.10193 21.0755 5.34136C21.1746 5.58079 21.2256 5.83741 21.2255 6.09655V9.14555" stroke="white" strokeLinecap="round" strokeLinejoin="round"/>
<path d="M21.147 14.9625H15.9625C15.1905 14.9625 14.45 14.6558 13.9041 14.1099C13.3582 13.564 13.0515 12.8236 13.0515 12.0515C13.0514 11.6692 13.1267 11.2906 13.2729 10.9374C13.4192 10.5841 13.6336 10.2632 13.9039 9.9928C14.1743 9.72244 14.4952 9.50797 14.8484 9.36165C15.2016 9.21533 15.5802 9.14001 15.9625 9.14001H21.1475C21.48 9.14001 21.75 9.41001 21.75 9.74301V14.36C21.75 14.6925 21.48 14.9625 21.147 14.9625Z" stroke="white" strokeLinecap="round" strokeLinejoin="round"/>
<path d="M16.229 13.438C16.976 13.438 17.5815 12.8325 17.5815 12.0855C17.5815 11.3386 16.976 10.733 16.229 10.733C15.482 10.733 14.8765 11.3386 14.8765 12.0855C14.8765 12.8325 15.482 13.438 16.229 13.438Z" stroke="white" strokeLinecap="round" strokeLinejoin="round"/>
</svg>
