<svg width="24" height="24" viewBox="0 0 24 24" fill="none" xmlns="http://www.w3.org/2000/svg">
<path d="M19.5 3.85352L20.75 2.60352V19C20.75 20.5219 19.5219 21.75 18 21.75H6C4.47807 21.75 3.25 20.5219 3.25 19V16.25H6.25V2.60352L7.5 3.85352L9 2.35352L10.5 3.85352L12 2.35352L13.5 3.85352L15 2.35352L16.5 3.85352L18 2.35352L19.5 3.85352ZM4.75 19C4.75 19.6881 5.31193 20.25 6 20.25H15.25V17.75H4.75V19ZM7.75 16.25H16.75V19C16.75 19.6881 17.3119 20.25 18 20.25C18.6881 20.25 19.25 19.6881 19.25 19V4.75H7.75V16.25ZM17.75 10.25V11.75H16.25V10.25H17.75ZM14.75 10.25V11.75H9.25V10.25H14.75ZM17.75 7.25V8.75H16.25V7.25H17.75ZM14.75 7.25V8.75H9.25V7.25H14.75Z" fill="white" stroke="#5D55FF" strokeWidth="0.5"/>
</svg>
