<svg width="24" height="24" viewBox="0 0 24 24" fill="none" xmlns="http://www.w3.org/2000/svg">
<path d="M5.84322 12.0005V7.95453C5.85524 7.15923 6.02407 6.37412 6.34005 5.64418C6.65603 4.91424 7.11294 4.25383 7.68461 3.70077C8.25627 3.14771 8.93145 2.71288 9.67146 2.4212C10.4115 2.12952 11.2018 1.98671 11.9971 2.00097C12.7924 1.98671 13.5827 2.12952 14.3227 2.4212C15.0627 2.71288 15.7379 3.14771 16.3095 3.70077C16.8812 4.25383 17.3381 4.91424 17.6541 5.64418C17.9701 6.37412 18.1389 7.15923 18.1509 7.95453V12.0005M15.074 20.077C15.89 20.077 16.6727 19.7529 17.2497 19.1758C17.8267 18.5988 18.1509 17.8163 18.1509 17.0002V13.5389M15.074 20.077C15.074 20.587 14.8714 21.0761 14.5107 21.4368C14.1501 21.7974 13.6609 22 13.1509 22H10.8432C10.3332 22 9.84405 21.7974 9.4834 21.4368C9.12276 21.0761 8.92015 20.587 8.92015 20.077C8.92015 19.567 9.12276 19.0779 9.4834 18.7173C9.84405 18.3566 10.3332 18.154 10.8432 18.154H13.1509C13.6609 18.154 14.1501 18.3566 14.5107 18.7173C14.8714 19.0779 15.074 19.567 15.074 20.077ZM3.53553 9.69291H5.07399C5.27801 9.69291 5.47366 9.77395 5.61792 9.9182C5.76218 10.0624 5.84322 10.2581 5.84322 10.4621V15.0773C5.84322 15.2813 5.76218 15.4769 5.61792 15.6212C5.47366 15.7654 5.27801 15.8465 5.07399 15.8465H3.53553C3.12751 15.8465 2.73619 15.6844 2.44768 15.3959C2.15916 15.1074 1.99707 14.7161 1.99707 14.3081V11.2313C1.99707 10.8233 2.15916 10.432 2.44768 10.1435C2.73619 9.85499 3.12751 9.69291 3.53553 9.69291ZM20.4586 15.8465H18.9201C18.7161 15.8465 18.5205 15.7654 18.3762 15.6212C18.232 15.4769 18.1509 15.2813 18.1509 15.0773V10.4621C18.1509 10.2581 18.232 10.0624 18.3762 9.9182C18.5205 9.77395 18.7161 9.69291 18.9201 9.69291H20.4586C20.8666 9.69291 21.2579 9.85499 21.5465 10.1435C21.835 10.432 21.9971 10.8233 21.9971 11.2313V14.3081C21.9971 14.7161 21.835 15.1074 21.5465 15.3959C21.2579 15.6844 20.8666 15.8465 20.4586 15.8465Z" stroke="white" strokeLinecap="round" strokeLinejoin="round"/>
</svg>
