<svg width="24" height="24" viewBox="0 0 24 24" fill="none" xmlns="http://www.w3.org/2000/svg">
<path d="M12 20.4C10.3386 20.4 8.71456 19.9073 7.33319 18.9843C5.95181 18.0613 4.87517 16.7494 4.23939 15.2145C3.60362 13.6796 3.43727 11.9907 3.76138 10.3612C4.0855 8.73178 4.88552 7.23504 6.06028 6.06028C7.23504 4.88552 8.73178 4.0855 10.3612 3.76138C11.9907 3.43727 13.6796 3.60362 15.2145 4.23939C16.7494 4.87517 18.0613 5.95181 18.9843 7.33319C19.9073 8.71456 20.4 10.3386 20.4 12C20.4 14.2278 19.515 16.3644 17.9397 17.9397C16.3644 19.515 14.2278 20.4 12 20.4ZM12 4.79998C10.576 4.79998 9.1839 5.22225 7.99987 6.0134C6.81584 6.80454 5.893 7.92903 5.34805 9.24466C4.8031 10.5603 4.66051 12.008 4.93832 13.4046C5.21614 14.8013 5.90187 16.0842 6.90881 17.0911C7.91575 18.0981 9.19866 18.7838 10.5953 19.0616C11.992 19.3394 13.4397 19.1969 14.7553 18.6519C16.0709 18.107 17.1954 17.1841 17.9866 16.0001C18.7777 14.816 19.2 13.424 19.2 12C19.2 10.0904 18.4414 8.25907 17.0911 6.90881C15.7409 5.55855 13.9095 4.79998 12 4.79998Z" fill="white"/>
<path d="M13.6748 15.5999L10.8 12.4695V7.19995H11.8286V12.0047L14.4 14.8103L13.6748 15.5999Z" fill="white"/>
</svg>
