<svg width="24" height="24" viewBox="0 0 24 24" fill="none" xmlns="http://www.w3.org/2000/svg">
<path d="M3.5 11.2998H9.1084C9.31132 11.2998 9.51301 11.3363 9.70312 11.4072L15.5244 13.5801V13.5811C15.9523 13.7415 16.3203 14.0098 16.6016 14.3486C16.9525 14.7714 17.3609 15.2548 17.8281 15.6309C18.2973 16.0084 18.8531 16.2998 19.5 16.2998C20.9943 16.2998 22.2002 17.5057 22.2002 19C22.2002 19.4637 21.8986 19.8734 21.4561 20.0117L14.9736 22.0381C14.6614 22.1356 14.3269 22.1411 14.0117 22.0537L8.36816 20.4893C7.78081 20.3266 7.2002 20.7684 7.2002 21.3779C7.20019 21.5558 7.0558 21.7002 6.87793 21.7002H3.5C2.56112 21.7002 1.7998 20.9389 1.7998 20V13C1.7998 12.0611 2.56112 11.2998 3.5 11.2998ZM8.86426 12.7002C7.94526 12.7002 7.2002 13.4453 7.2002 14.3643V16.959C7.20039 17.9925 7.88979 18.8988 8.88574 19.1748L13.8242 20.542C14.2489 20.6596 14.6983 20.653 15.1191 20.5225L19.4229 19.1875C19.7975 19.0712 20.0705 18.7693 20.1406 18.4551C20.1764 18.2942 20.1633 18.0981 20.0352 17.9375C19.9049 17.7743 19.7057 17.71 19.5 17.71H14.1504C13.6441 17.71 13.1457 17.626 12.665 17.4658L12.6641 17.4648L11.2344 16.9902C10.8671 16.8683 10.6682 16.4718 10.79 16.1045C10.912 15.7372 11.3084 15.5382 11.6758 15.6602L13.1055 16.1348L13.1074 16.1357C13.1736 16.1571 13.261 16.1709 13.3428 16.1816C13.4309 16.1933 13.5365 16.2035 13.6504 16.2129C13.8784 16.2318 14.1519 16.2482 14.416 16.2607C14.8074 16.2793 15.1706 16.0891 15.3525 15.8242C15.4451 15.6893 15.5108 15.5023 15.4541 15.3037C15.3955 15.0988 15.2309 14.9638 15.0371 14.8896L15.0352 14.8887L9.44531 12.8047C9.25944 12.7354 9.06263 12.7002 8.86426 12.7002ZM4.5 12.7002C3.78203 12.7002 3.2002 13.282 3.2002 14V19C3.2002 19.718 3.78203 20.2998 4.5 20.2998C5.21797 20.2998 5.7998 19.718 5.7998 19V14C5.7998 13.282 5.21797 12.7002 4.5 12.7002Z" fill="white" stroke="#5D55FF" strokeWidth="0.6"/>
<path d="M13.4541 2.49316C14.0799 2.0463 14.9201 2.0463 15.5459 2.49316L20.5459 6.06445C21.0189 6.40233 21.2998 6.94798 21.2998 7.5293V13C21.2998 13.4418 20.9418 13.7998 20.5 13.7998C20.0582 13.7998 19.7002 13.4418 19.7002 13V8.54102C19.7001 7.82331 19.3496 7.1509 18.7617 6.73926L15.7617 4.63867C15.0043 4.1085 13.9957 4.1085 13.2383 4.63867L9.80566 7.04199C9.48876 7.26403 9.2998 7.6267 9.2998 8.01367C9.29976 8.44619 8.94291 8.7998 8.50684 8.7998C8.06323 8.7998 7.7002 8.44006 7.7002 8V7.34961C7.7002 6.88114 7.92641 6.44124 8.30762 6.16895L13.4541 2.49316ZM13.5 9.2002C13.6657 9.2002 13.7998 9.33431 13.7998 9.5C13.7998 9.66569 13.6657 9.7998 13.5 9.7998C13.3343 9.7998 13.2002 9.66569 13.2002 9.5C13.2002 9.33431 13.3343 9.2002 13.5 9.2002ZM15.5 9.2002C15.6657 9.2002 15.7998 9.33431 15.7998 9.5C15.7998 9.66569 15.6657 9.7998 15.5 9.7998C15.3343 9.7998 15.2002 9.66569 15.2002 9.5C15.2002 9.33431 15.3343 9.2002 15.5 9.2002ZM13.5 7.2002C13.6657 7.2002 13.7998 7.33431 13.7998 7.5C13.7998 7.66569 13.6657 7.7998 13.5 7.7998C13.3343 7.7998 13.2002 7.66569 13.2002 7.5C13.2002 7.33431 13.3343 7.2002 13.5 7.2002ZM15.5 7.2002C15.6657 7.2002 15.7998 7.33431 15.7998 7.5C15.7998 7.66569 15.6657 7.7998 15.5 7.7998C15.3343 7.7998 15.2002 7.66569 15.2002 7.5C15.2002 7.33431 15.3343 7.2002 15.5 7.2002Z" fill="white" stroke="#5D55FF" strokeWidth="0.4"/>
</svg>
