<svg width="140" height="26" viewBox="0 0 140 26" fill="none" xmlns="http://www.w3.org/2000/svg">
<path d="M4.016 16.336H9.536V19H0.656V2.248H4.016V16.336ZM24.0316 12.064C24.0316 12.544 23.9996 12.976 23.9356 13.36H14.2156C14.2956 14.32 14.6316 15.072 15.2236 15.616C15.8156 16.16 16.5436 16.432 17.4076 16.432C18.6556 16.432 19.5436 15.896 20.0716 14.824H23.6956C23.3116 16.104 22.5756 17.16 21.4876 17.992C20.3996 18.808 19.0636 19.216 17.4796 19.216C16.1996 19.216 15.0476 18.936 14.0236 18.376C13.0156 17.8 12.2236 16.992 11.6476 15.952C11.0876 14.912 10.8076 13.712 10.8076 12.352C10.8076 10.976 11.0876 9.768 11.6476 8.728C12.2076 7.688 12.9916 6.888 13.9996 6.328C15.0076 5.768 16.1676 5.488 17.4796 5.488C18.7436 5.488 19.8716 5.76 20.8636 6.304C21.8716 6.848 22.6476 7.624 23.1916 8.632C23.7516 9.624 24.0316 10.768 24.0316 12.064ZM20.5516 11.104C20.5356 10.24 20.2236 9.552 19.6156 9.04C19.0076 8.512 18.2636 8.248 17.3836 8.248C16.5516 8.248 15.8476 8.504 15.2716 9.016C14.7116 9.512 14.3676 10.208 14.2396 11.104H20.5516ZM31.6921 5.488C32.6841 5.488 33.5561 5.688 34.3081 6.088C35.0601 6.472 35.6521 6.976 36.0841 7.6V5.704H39.4681V19.096C39.4681 20.328 39.2201 21.424 38.7241 22.384C38.2281 23.36 37.4841 24.128 36.4921 24.688C35.5001 25.264 34.3001 25.552 32.8921 25.552C31.0041 25.552 29.4521 25.112 28.2361 24.232C27.0361 23.352 26.3561 22.152 26.1961 20.632H29.5321C29.7081 21.24 30.0841 21.72 30.6601 22.072C31.2521 22.44 31.9641 22.624 32.7961 22.624C33.7721 22.624 34.5641 22.328 35.1721 21.736C35.7801 21.16 36.0841 20.28 36.0841 19.096V17.032C35.6521 17.656 35.0521 18.176 34.2841 18.592C33.5321 19.008 32.6681 19.216 31.6921 19.216C30.5721 19.216 29.5481 18.928 28.6201 18.352C27.6921 17.776 26.9561 16.968 26.4121 15.928C25.8841 14.872 25.6201 13.664 25.6201 12.304C25.6201 10.96 25.8841 9.768 26.4121 8.728C26.9561 7.688 27.6841 6.888 28.5961 6.328C29.5241 5.768 30.5561 5.488 31.6921 5.488ZM36.0841 12.352C36.0841 11.536 35.9241 10.84 35.6041 10.264C35.2841 9.672 34.8521 9.224 34.3081 8.92C33.7641 8.6 33.1801 8.44 32.5561 8.44C31.9321 8.44 31.3561 8.592 30.8281 8.896C30.3001 9.2 29.8681 9.648 29.5321 10.24C29.2121 10.816 29.0521 11.504 29.0521 12.304C29.0521 13.104 29.2121 13.808 29.5321 14.416C29.8681 15.008 30.3001 15.464 30.8281 15.784C31.3721 16.104 31.9481 16.264 32.5561 16.264C33.1801 16.264 33.7641 16.112 34.3081 15.808C34.8521 15.488 35.2841 15.04 35.6041 14.464C35.9241 13.872 36.0841 13.168 36.0841 12.352ZM41.8857 12.304C41.8857 10.96 42.1497 9.768 42.6777 8.728C43.2218 7.688 43.9498 6.888 44.8618 6.328C45.7898 5.768 46.8218 5.488 47.9578 5.488C48.9498 5.488 49.8138 5.688 50.5498 6.088C51.3018 6.488 51.9018 6.992 52.3498 7.6V5.704H55.7338V19H52.3498V17.056C51.9178 17.68 51.3178 18.2 50.5498 18.616C49.7978 19.016 48.9258 19.216 47.9338 19.216C46.8138 19.216 45.7898 18.928 44.8618 18.352C43.9498 17.776 43.2218 16.968 42.6777 15.928C42.1497 14.872 41.8857 13.664 41.8857 12.304ZM52.3498 12.352C52.3498 11.536 52.1898 10.84 51.8698 10.264C51.5498 9.672 51.1178 9.224 50.5738 8.92C50.0298 8.6 49.4458 8.44 48.8218 8.44C48.1978 8.44 47.6218 8.592 47.0938 8.896C46.5658 9.2 46.1338 9.648 45.7978 10.24C45.4778 10.816 45.3178 11.504 45.3178 12.304C45.3178 13.104 45.4778 13.808 45.7978 14.416C46.1338 15.008 46.5658 15.464 47.0938 15.784C47.6378 16.104 48.2138 16.264 48.8218 16.264C49.4458 16.264 50.0298 16.112 50.5738 15.808C51.1178 15.488 51.5498 15.04 51.8698 14.464C52.1898 13.872 52.3498 13.168 52.3498 12.352ZM58.1514 12.352C58.1514 10.976 58.4314 9.776 58.9914 8.752C59.5514 7.712 60.3274 6.912 61.3194 6.352C62.3114 5.776 63.4474 5.488 64.7274 5.488C66.3754 5.488 67.7354 5.904 68.8074 6.736C69.8954 7.552 70.6234 8.704 70.9914 10.192H67.3674C67.1754 9.616 66.8474 9.168 66.3834 8.848C65.9354 8.512 65.3754 8.344 64.7034 8.344C63.7434 8.344 62.9834 8.696 62.4234 9.4C61.8634 10.088 61.5834 11.072 61.5834 12.352C61.5834 13.616 61.8634 14.6 62.4234 15.304C62.9834 15.992 63.7434 16.336 64.7034 16.336C66.0634 16.336 66.9514 15.728 67.3674 14.512H70.9914C70.6234 15.952 69.8954 17.096 68.8074 17.944C67.7194 18.792 66.3594 19.216 64.7274 19.216C63.4474 19.216 62.3114 18.936 61.3194 18.376C60.3274 17.8 59.5514 17 58.9914 15.976C58.4314 14.936 58.1514 13.728 58.1514 12.352ZM86.1729 5.704L77.9409 25.288H74.3649L77.2449 18.664L71.9169 5.704H75.6849L79.1169 14.992L82.5969 5.704H86.1729ZM91.3441 16.336H96.8641V19H87.9841V2.248H91.3441V16.336ZM100.704 4.12C100.112 4.12 99.6158 3.936 99.2158 3.568C98.8318 3.184 98.6398 2.712 98.6398 2.152C98.6398 1.592 98.8318 1.128 99.2158 0.759999C99.6158 0.375999 100.112 0.183999 100.704 0.183999C101.296 0.183999 101.784 0.375999 102.168 0.759999C102.568 1.128 102.768 1.592 102.768 2.152C102.768 2.712 102.568 3.184 102.168 3.568C101.784 3.936 101.296 4.12 100.704 4.12ZM102.36 5.704V19H98.9998V5.704H102.36ZM113.047 5.512C114.631 5.512 115.911 6.016 116.887 7.024C117.863 8.016 118.351 9.408 118.351 11.2V19H114.991V11.656C114.991 10.6 114.727 9.792 114.199 9.232C113.671 8.656 112.951 8.368 112.039 8.368C111.111 8.368 110.375 8.656 109.831 9.232C109.303 9.792 109.039 10.6 109.039 11.656V19H105.679V5.704H109.039V7.36C109.487 6.784 110.055 6.336 110.743 6.016C111.447 5.68 112.215 5.512 113.047 5.512ZM133.907 12.064C133.907 12.544 133.875 12.976 133.811 13.36H124.091C124.171 14.32 124.507 15.072 125.099 15.616C125.691 16.16 126.419 16.432 127.283 16.432C128.531 16.432 129.419 15.896 129.947 14.824H133.571C133.187 16.104 132.451 17.16 131.363 17.992C130.275 18.808 128.939 19.216 127.355 19.216C126.075 19.216 124.923 18.936 123.899 18.376C122.891 17.8 122.099 16.992 121.523 15.952C120.963 14.912 120.683 13.712 120.683 12.352C120.683 10.976 120.963 9.768 121.523 8.728C122.083 7.688 122.867 6.888 123.875 6.328C124.883 5.768 126.043 5.488 127.355 5.488C128.619 5.488 129.747 5.76 130.739 6.304C131.747 6.848 132.523 7.624 133.067 8.632C133.627 9.624 133.907 10.768 133.907 12.064ZM130.427 11.104C130.411 10.24 130.099 9.552 129.491 9.04C128.883 8.512 128.139 8.248 127.259 8.248C126.427 8.248 125.723 8.504 125.147 9.016C124.587 9.512 124.243 10.208 124.115 11.104H130.427ZM137.847 19.168C137.239 19.168 136.735 18.984 136.335 18.616C135.951 18.232 135.759 17.76 135.759 17.2C135.759 16.64 135.951 16.176 136.335 15.808C136.735 15.424 137.239 15.232 137.847 15.232C138.439 15.232 138.927 15.424 139.311 15.808C139.695 16.176 139.887 16.64 139.887 17.2C139.887 17.76 139.695 18.232 139.311 18.616C138.927 18.984 138.439 19.168 137.847 19.168Z" fill="white"/>
</svg>
